<svg width="370" height="81" viewBox="0 0 370 81" fill="none" xmlns="http://www.w3.org/2000/svg">
<g clip-path="url(#clip0_1_9)">
<path fill-rule="evenodd" clip-rule="evenodd" d="M25.4057 5.22246C46.2969 5.22246 63.1624 21.0125 63.1624 40.4265C63.1624 51.6217 57.5408 61.6526 48.7955 68.1239C47.338 64.1763 44.6311 60.6171 41.3691 57.64C40.9526 57.252 40.5362 56.9285 40.1198 56.6049C43.0348 54.2753 45.464 51.4277 47.2685 48.0626C49.1425 44.4387 50.1142 40.4912 50.1142 36.479C50.1142 20.0418 35.7472 8.52285 18.604 8.52285C12.2187 8.52285 6.24975 10.3348 1.25255 13.3764C7.77671 8.26399 16.2442 5.22246 25.4057 5.22246Z" fill="#2BB2E7"/>
<path fill-rule="evenodd" clip-rule="evenodd" d="M37.1321 74.0127C33.4536 75.1127 29.4974 75.7597 25.4719 75.7597C15.6857 75.7597 6.73235 72.2651 0 66.5704V38.0319C0 28.4543 8.3287 20.6887 18.6007 20.6887C28.8728 20.6887 37.2015 27.0306 37.2015 36.6082C37.2015 45.0209 30.5385 50.2627 19.2254 53.6278C17.7679 54.0808 16.7268 55.3104 16.7268 56.6045C16.7268 57.899 17.7679 59.1285 19.2254 59.5816C29.775 62.6877 36.2992 68.6414 37.0627 74.0772L37.1321 74.0127Z" fill="#0584C7"/>
<path fill-rule="evenodd" clip-rule="evenodd" d="M88.7695 1.38534H90.1288V79.5983H88.7695V1.38534Z" fill="#848688"/>
<path d="M137.351 33.9568C141.376 32.5331 144.708 29.0386 144.708 24.2498C144.708 13.7663 133.741 13.1839 128.328 13.1839C124.163 13.1839 120.138 13.5075 117.223 14.0252V52.5297H125.413V36.6748H128.189C132.075 36.6748 133.811 38.2279 134.921 43.2755C135.893 47.9996 137.004 51.3647 137.628 52.5297H146.095C145.263 51.0411 144.152 46.3818 142.903 41.7871C141.931 37.8397 140.196 35.1864 137.212 34.151V34.0215L137.351 33.9568ZM125.482 31.1095V19.2022C126.176 19.0081 127.426 18.8787 129.299 18.8787C132.284 18.8787 136.448 19.8494 136.448 24.897C136.448 28.5856 133.603 31.1095 128.883 31.1095H125.482ZM174.413 35.4453C174.413 29.2328 171.776 23.6674 162.129 23.6674C157.27 23.6674 153.383 24.9617 151.371 26.0618L152.967 30.9153C154.979 29.8152 157.756 28.9739 160.602 28.9739C165.113 28.9739 166.223 31.1095 166.223 33.8921C156.298 33.8921 149.219 37.3219 149.219 44.5698C149.219 49.1646 152.828 53.0472 158.589 53.0472C162.059 53.0472 165.044 51.7532 166.848 49.5526H166.987L167.473 52.4647H174.899C174.552 50.7176 174.483 48.2585 174.483 45.7346V35.3806L174.413 35.4453ZM166.362 42.8226C166.362 46.4465 163.1 47.6761 161.157 47.6761C159.074 47.6761 157.27 46.5112 157.27 43.7933C157.27 39.6516 161.92 38.7456 166.362 38.7456V42.8226ZM183.158 24.2498H179.063V29.7505H183.158V42.8226C183.158 45.9935 183.297 53.0472 192.25 53.0472C194.68 53.0472 196.692 52.7882 197.803 52.4002L197.664 46.6406C196.831 46.7701 196.137 46.8995 194.957 46.8995C192.459 46.8995 191.279 45.4758 191.279 42.046V29.7505H198.15V24.2498H191.279V16.8725L183.089 19.0728V24.2498H183.158ZM229.938 35.1864C229.938 27.2914 225.496 23.7321 219.805 23.7321C215.293 23.7321 212.17 26.0618 210.782 28.1327H210.643L210.227 24.2498H203.078C203.217 26.7737 203.286 29.4269 203.286 32.7273V52.5297H211.545V35.7041C211.545 31.433 214.599 29.8152 216.89 29.8152C220.429 29.8152 221.609 32.5331 221.609 36.0277V52.5297H229.869V35.1864H229.938ZM260.546 35.4453C260.546 29.2328 257.909 23.6674 248.261 23.6674C243.402 23.6674 239.516 24.9617 237.503 26.0618L239.099 30.9153C241.112 29.8152 243.889 28.9739 246.734 28.9739C251.246 28.9739 252.356 31.1095 252.356 33.8921C242.431 33.8921 235.352 37.3219 235.352 44.5698C235.352 49.1646 238.96 53.0472 244.721 53.0472C248.191 53.0472 251.176 51.7532 252.98 49.5526H253.12L253.605 52.4647H261.032C260.685 50.7176 260.615 48.2585 260.615 45.7346V35.3806L260.546 35.4453ZM252.495 42.8226C252.495 46.4465 249.233 47.6761 247.289 47.6761C245.207 47.6761 243.402 46.5112 243.402 43.7933C243.402 39.6516 248.053 38.7456 252.495 38.7456V42.8226ZM285.879 25.2205C284.074 24.3793 281.367 23.6674 278.175 23.6674C271.234 23.6674 266.792 27.5502 266.792 32.5978C266.792 35.7041 268.944 38.6809 274.705 40.8164C278.105 42.1107 279.146 43.0167 279.146 44.7639C279.146 46.5112 277.758 47.6114 274.843 47.6114C272.275 47.6114 269.221 46.5759 267.556 45.7346L265.959 51.1707C268.042 52.2707 271.304 53.0472 274.705 53.0472C282.478 53.0472 286.92 49.4881 286.92 44.1168C286.92 40.234 284.491 37.4513 279.216 35.51C275.607 34.151 274.496 33.3097 274.496 31.7566C274.496 30.2035 275.815 29.0386 278.383 29.0386C280.743 29.0386 282.894 29.8799 284.283 30.5271L285.879 25.2205ZM319.333 35.6394C319.333 27.2914 314.96 23.6674 309.408 23.6674C306.7 23.6674 303.3 24.7029 301.079 27.6796H300.94V11.7602H292.681V52.5297H300.94V35.3806C300.94 31.1742 304.132 29.8799 306.215 29.8799C309.824 29.8799 311.004 32.6626 311.004 36.2865V52.5942H319.263V35.7041L319.333 35.6394ZM343.694 23.7969C343.139 23.6674 342.653 23.6674 341.82 23.6674C338.905 23.6674 335.573 25.5441 334.116 29.168H333.908L333.561 24.2498H326.481C326.62 26.7737 326.689 29.5563 326.689 33.0509V52.4647H334.949V37.8397C334.949 32.9862 337.794 30.7212 341.542 30.7212C342.375 30.7212 343.069 30.7859 343.694 30.8506V23.6674V23.7969ZM356.812 16.549C356.812 14.2193 355.007 12.5368 352.37 12.5368C349.802 12.5368 347.928 14.2193 347.928 16.549C347.928 18.8139 349.732 20.5612 352.37 20.5612C354.938 20.5612 356.812 19.0081 356.812 16.549ZM356.534 24.2498H348.275V52.5297H356.534V24.2498Z" fill="#0584C7"/>
<path d="M122.36 72.7836H130.481L126.386 63.0117L122.36 72.7836ZM117.294 80.1609L125.275 61.1351H127.566L135.548 80.1609H133.535L131.175 74.3367H121.805L119.376 80.1609H117.363H117.294ZM137.56 80.1609V61.1351H139.296V80.1609H137.56ZM155.259 66.4413V80.1609H153.593V77.9603C153.038 78.8018 152.344 79.4489 151.511 79.9019C150.678 80.2899 149.706 80.5489 148.527 80.5489C146.791 80.5489 145.542 80.1609 144.709 79.3194C143.876 78.4783 143.39 77.3133 143.39 75.6957V66.4413H145.126V75.3072C145.126 76.6663 145.403 77.6368 145.958 78.2193C146.513 78.8018 147.485 79.0604 148.804 79.0604C150.262 79.0604 151.372 78.6723 152.274 77.8308C153.107 77.0543 153.523 75.8897 153.523 74.5307V66.3768H155.259V66.4413ZM159.215 80.1609V66.4413H160.881V68.7064C161.367 67.8654 162.06 67.2179 162.894 66.7649C163.726 66.3123 164.628 66.1178 165.67 66.1178C166.78 66.1178 167.752 66.3768 168.515 66.8298C169.279 67.2829 169.764 67.9944 170.042 68.8359C170.528 67.9299 171.222 67.2829 172.055 66.8298C172.888 66.3768 173.859 66.1178 174.901 66.1178C176.567 66.1178 177.746 66.5063 178.579 67.2179C179.412 67.9944 179.828 69.0949 179.828 70.583V80.1609H178.024V70.7125C178.024 69.548 177.746 68.7064 177.26 68.2534C176.774 67.7359 175.942 67.4769 174.831 67.4769C173.512 67.4769 172.402 67.8654 171.638 68.5769C170.806 69.3535 170.459 70.3245 170.459 71.554V80.1609H168.723V70.842C168.723 69.677 168.446 68.8359 167.96 68.3184C167.474 67.7359 166.641 67.4769 165.531 67.4769C164.212 67.4769 163.102 67.8654 162.338 68.6419C161.505 69.4185 161.089 70.389 161.089 71.6831V80.1609H159.354H159.215ZM183.715 63.5292V61.1351H185.45V63.5292H183.715ZM183.715 80.1609V66.4413H185.45V80.1609H183.715ZM189.545 80.1609V66.4413H191.211V68.6419C191.766 67.8004 192.46 67.1534 193.293 66.7649C194.126 66.3123 195.098 66.1178 196.208 66.1178C197.249 66.1178 198.152 66.3123 198.984 66.6358C199.748 66.9593 200.373 67.4769 200.789 68.0594C200.997 68.3829 201.136 68.7714 201.275 69.224C201.344 69.677 201.414 70.389 201.414 71.4245V71.8126V80.1609H199.609V71.6186C199.609 70.001 199.331 68.9004 198.776 68.3184C198.221 67.7359 197.249 67.4769 195.861 67.4769C194.473 67.4769 193.363 67.8654 192.53 68.7064C191.697 69.548 191.28 70.648 191.28 72.0071V80.0959H189.476L189.545 80.1609ZM205.439 63.5292V61.1351H207.174V63.5292H205.439ZM205.439 80.1609V66.4413H207.174V80.1609H205.439ZM223.137 66.4413V80.1609H221.472V77.9603C220.916 78.8018 220.223 79.4489 219.389 79.9019C218.557 80.2899 217.585 80.5489 216.405 80.5489C214.67 80.5489 213.421 80.1609 212.588 79.3194C211.755 78.4783 211.269 77.3133 211.269 75.6957V66.4413H213.004V75.3072C213.004 76.6663 213.282 77.6368 213.837 78.2193C214.393 78.8018 215.364 79.0604 216.683 79.0604C218.14 79.0604 219.251 78.6723 220.153 77.8308C220.986 77.0543 221.403 75.8897 221.403 74.5307V66.3768H223.137V66.4413ZM227.094 80.1609V66.4413H228.76V68.7064C229.245 67.8654 229.939 67.2179 230.772 66.7649C231.605 66.3123 232.507 66.1178 233.549 66.1178C234.659 66.1178 235.63 66.3768 236.394 66.8298C237.157 67.2829 237.644 67.9944 237.921 68.8359C238.407 67.9299 239.101 67.2829 239.934 66.8298C240.767 66.3768 241.738 66.1178 242.78 66.1178C244.445 66.1178 245.625 66.5063 246.458 67.2179C247.291 67.9944 247.707 69.0949 247.707 70.583V80.1609H245.903V70.7125C245.903 69.548 245.625 68.7064 245.139 68.2534C244.654 67.7359 243.82 67.4769 242.71 67.4769C241.391 67.4769 240.281 67.8654 239.517 68.5769C238.684 69.3535 238.338 70.3245 238.338 71.554V80.1609H236.602V70.842C236.602 69.677 236.325 68.8359 235.839 68.3184C235.353 67.7359 234.52 67.4769 233.41 67.4769C232.091 67.4769 230.981 67.8654 230.217 68.6419C229.384 69.4185 228.968 70.389 228.968 71.6831V80.1609H227.233H227.094ZM261.519 70.3245H266.03C268.112 70.3245 269.57 70.001 270.472 69.4185C271.375 68.8359 271.791 67.8004 271.791 66.4413C271.791 65.1473 271.375 64.1767 270.611 63.5942C269.778 63.0117 268.529 62.6882 266.863 62.6882H261.519V70.3245ZM259.576 80.1609V61.1351H266.863C269.154 61.1351 270.888 61.5881 271.999 62.4942C273.179 63.4002 273.734 64.7588 273.734 66.5063C273.734 68.3184 273.11 69.677 271.791 70.583C270.472 71.489 268.529 71.9421 265.892 71.9421H261.45V80.2254H259.506L259.576 80.1609ZM280.606 80.1609L274.914 66.4413H276.788L281.647 78.2193L286.435 66.4413H288.24L282.549 80.1609H280.606ZM292.613 62.4942V66.4413H295.389V67.7359H292.613V77.7663C292.613 78.3488 292.682 78.7369 292.89 78.9313C293.029 79.1254 293.307 79.1899 293.723 79.1899C293.932 79.1899 294.139 79.1899 294.348 79.1254C294.556 79.1254 294.903 79.0604 295.389 78.9313V80.2254C294.973 80.3549 294.556 80.4194 294.209 80.4194C293.862 80.4844 293.515 80.4844 293.237 80.4844C292.335 80.4844 291.78 80.2899 291.363 79.9019C291.016 79.5134 290.808 78.8018 290.808 77.7018V67.6709H288.726V66.3768H290.808V62.4292H292.543L292.613 62.4942ZM299.206 80.1609V77.8308H301.149V80.1609H299.206ZM314.128 80.1609V61.1351H316.141V78.6078H326.83V80.1609H314.128ZM331.203 62.4942V66.4413H333.979V67.7359H331.203V77.7663C331.203 78.3488 331.272 78.7369 331.48 78.9313C331.619 79.1254 331.896 79.1899 332.313 79.1899C332.521 79.1899 332.729 79.1899 332.937 79.1254C333.146 79.1254 333.493 79.0604 333.979 78.9313V80.2254C333.562 80.3549 333.146 80.4194 332.799 80.4194C332.452 80.4844 332.105 80.4844 331.827 80.4844C330.925 80.4844 330.369 80.2899 329.953 79.9019C329.606 79.5134 329.398 78.8018 329.398 77.7018V67.6709H327.316V66.3768H329.398V62.4292H331.133L331.203 62.4942ZM337.935 73.3011C337.935 75.1132 338.351 76.6013 339.253 77.5723C340.156 78.6078 341.405 79.1254 343.001 79.1254C344.667 79.1254 345.916 78.6078 346.819 77.6368C347.721 76.6013 348.137 75.1777 348.137 73.3011C348.137 71.4245 347.721 70.001 346.819 68.9654C345.916 67.9299 344.667 67.4769 343.001 67.4769C341.336 67.4769 340.086 67.9944 339.253 68.9654C338.351 70.001 337.935 71.4245 337.935 73.3011ZM349.803 61.1351V80.1609H348.068V77.8308C347.513 78.7369 346.749 79.3844 345.847 79.8374C344.945 80.2899 343.904 80.4844 342.724 80.4844C340.711 80.4844 339.045 79.8374 337.865 78.5428C336.685 77.2488 336.061 75.5012 336.061 73.2366C336.061 71.036 336.685 69.224 337.865 67.9299C339.045 66.6358 340.711 65.9883 342.793 65.9883C343.973 65.9883 345.014 66.2473 345.916 66.7003C346.819 67.1534 347.513 67.8654 348.068 68.7714V61.0701H349.803V61.1351ZM354.731 80.1609V77.8308H356.674V80.1609H354.731Z" fill="#848688"/>
<path d="M362.925 0.434585C364.036 0.434585 365.146 0.693438 366.187 1.21114C367.228 1.72885 368.061 2.50541 368.686 3.54082C369.311 4.51152 369.588 5.61165 369.588 6.64705C369.588 7.74719 369.311 8.78258 368.686 9.75328C368.131 10.724 367.298 11.5005 366.187 12.083C365.146 12.6654 364.036 12.9243 362.856 12.9243C361.676 12.9243 360.566 12.6654 359.524 12.083C358.483 11.5653 357.65 10.7887 357.026 9.75328C356.401 8.78258 356.124 7.74719 356.124 6.64705C356.124 5.54695 356.401 4.51152 357.026 3.54082C357.65 2.50541 358.483 1.79356 359.524 1.21114C360.566 0.693438 361.676 0.434585 362.787 0.434585H362.925ZM362.925 1.47C361.954 1.47 361.051 1.66414 360.149 2.11713C359.247 2.57012 358.553 3.21726 358.067 4.05853C357.581 4.89982 357.303 5.74106 357.303 6.64705C357.303 7.55303 357.581 8.39432 358.067 9.2356C358.553 10.0768 359.247 10.724 360.149 11.177C361.051 11.63 361.954 11.8888 362.925 11.8888C363.897 11.8888 364.799 11.63 365.702 11.177C366.604 10.724 367.298 10.0768 367.783 9.2356C368.27 8.39432 368.547 7.55303 368.547 6.64705C368.547 5.74106 368.27 4.89982 367.783 4.05853C367.298 3.21726 366.604 2.57012 365.702 2.11713C364.799 1.66414 363.897 1.47 362.994 1.47H362.925ZM360.01 10.1416V3.4114H362.509C363.342 3.4114 363.966 3.47611 364.313 3.60553C364.66 3.73496 365.008 3.9291 365.215 4.25267C365.424 4.57623 365.563 4.89982 365.563 5.22339C365.563 5.74106 365.355 6.12937 365.008 6.51764C364.66 6.90591 364.105 7.10006 363.481 7.10006C363.758 7.22947 363.966 7.29417 364.105 7.48833C364.383 7.74719 364.73 8.20016 365.146 8.84729L366.049 10.1416H364.66L364.036 9.10615C363.55 8.26491 363.134 7.74719 362.856 7.55303C362.648 7.42363 362.301 7.29417 361.954 7.29417H361.26V10.1416H360.08H360.01ZM361.19 6.38819H362.578C363.272 6.38819 363.689 6.32348 363.966 6.12937C364.244 5.93522 364.313 5.67636 364.313 5.35279C364.313 5.15863 364.244 4.96452 364.105 4.83508C363.966 4.70566 363.828 4.57623 363.619 4.51152C363.411 4.44681 362.994 4.3821 362.439 4.3821H361.121V6.38819H361.19Z" fill="#0579B8"/>
</g>
<defs>
<clipPath id="clip0_1_9">
<rect width="370" height="81" fill="white"/>
</clipPath>
</defs>
</svg>
