<svg width="235" height="50" viewBox="0 0 235 50" fill="none" xmlns="http://www.w3.org/2000/svg">
<g clip-path="url(#clip0_1_9)">
<path fill-rule="evenodd" clip-rule="evenodd" d="M16.1361 3.22374C29.4048 3.22374 40.1166 12.9707 40.1166 24.9546C40.1166 31.8653 36.5462 38.0572 30.9917 42.0518C30.066 39.615 28.3468 37.418 26.2749 35.5802C26.0105 35.3407 25.746 35.141 25.4815 34.9413C27.3329 33.5033 28.8758 31.7455 30.0219 29.6683C31.2121 27.4313 31.8293 24.9946 31.8293 22.5179C31.8293 12.3715 22.7043 5.26102 11.816 5.26102C7.7605 5.26102 3.96943 6.37952 0.795537 8.25701C4.93926 5.10123 10.3173 3.22374 16.1361 3.22374Z" fill="#2BB2E7"/>
<path fill-rule="evenodd" clip-rule="evenodd" d="M23.5839 45.6868C21.2475 46.3659 18.7348 46.7653 16.1781 46.7653C9.96254 46.7653 4.27595 44.6081 0 41.0928V23.4765C0 17.5644 5.28985 12.7708 11.814 12.7708C18.3381 12.7708 23.628 16.6856 23.628 22.5976C23.628 27.7907 19.3961 31.0263 12.2107 33.1036C11.285 33.3832 10.6238 34.1422 10.6238 34.941C10.6238 35.7401 11.285 36.4991 12.2107 36.7787C18.9112 38.6961 23.0549 42.3713 23.5398 45.7266L23.5839 45.6868Z" fill="#0584C7"/>
<path fill-rule="evenodd" clip-rule="evenodd" d="M56.3806 0.85515H57.244V49.1347H56.3806V0.85515Z" fill="#848688"/>
<path d="M87.2362 20.961C89.7929 20.0822 91.9088 17.9251 91.9088 14.969C91.9088 8.49772 84.9437 8.1382 81.5056 8.1382C78.8605 8.1382 76.3038 8.33793 74.4524 8.65751V32.4257H79.6542V22.6388H81.4172C83.8858 22.6388 84.988 23.5975 85.6933 26.7133C86.3105 29.6294 87.0158 31.7066 87.4124 32.4257H92.7903C92.2615 31.5069 91.5562 28.6307 90.7628 25.7945C90.1456 23.3578 89.0434 21.72 87.1481 21.0809V21.001L87.2362 20.961ZM79.6981 19.2034V11.8532C80.1388 11.7334 80.9325 11.6535 82.1225 11.6535C84.0181 11.6535 86.6632 12.2527 86.6632 15.3685C86.6632 17.6454 84.8557 19.2034 81.8582 19.2034H79.6981ZM110.776 21.8798C110.776 18.0449 109.101 14.6095 102.974 14.6095C99.8877 14.6095 97.4191 15.4085 96.1408 16.0875L97.1545 19.0835C98.4329 18.4044 100.196 17.8851 102.004 17.8851C104.869 17.8851 105.574 19.2034 105.574 20.9211C99.2705 20.9211 94.7743 23.0382 94.7743 27.5122C94.7743 30.3485 97.0664 32.7452 100.725 32.7452C102.929 32.7452 104.825 31.9464 105.971 30.588H106.059L106.368 32.3856H111.084C110.864 31.3072 110.82 29.7892 110.82 28.2313V21.8398L110.776 21.8798ZM105.663 26.4337C105.663 28.6707 103.59 29.4297 102.356 29.4297C101.034 29.4297 99.8877 28.7106 99.8877 27.0329C99.8877 24.4763 102.841 23.9171 105.663 23.9171V26.4337ZM116.33 14.969H113.73V18.3645H116.33V26.4337C116.33 28.391 116.418 32.7452 122.105 32.7452C123.648 32.7452 124.926 32.5853 125.632 32.3458L125.543 28.7905C125.015 28.8704 124.574 28.9503 123.824 28.9503C122.237 28.9503 121.488 28.0715 121.488 25.9543V18.3645H125.852V14.969H121.488V10.4151L116.286 11.7733V14.969H116.33ZM146.042 21.72C146.042 16.8465 143.22 14.6495 139.606 14.6495C136.74 14.6495 134.756 16.0875 133.875 17.3658H133.787L133.522 14.969H128.982C129.07 16.5269 129.114 18.1648 129.114 20.202V32.4257H134.36V22.0396C134.36 19.4031 136.299 18.4044 137.754 18.4044C140.002 18.4044 140.752 20.0822 140.752 22.2393V32.4257H145.998V21.72H146.042ZM165.482 21.8798C165.482 18.0449 163.807 14.6095 157.679 14.6095C154.593 14.6095 152.125 15.4085 150.846 16.0875L151.86 19.0835C153.139 18.4044 154.902 17.8851 156.709 17.8851C159.575 17.8851 160.28 19.2034 160.28 20.9211C153.976 20.9211 149.48 23.0382 149.48 27.5122C149.48 30.3485 151.772 32.7452 155.431 32.7452C157.635 32.7452 159.531 31.9464 160.677 30.588H160.765L161.074 32.3856H165.79C165.57 31.3072 165.526 29.7892 165.526 28.2313V21.8398L165.482 21.8798ZM160.368 26.4337C160.368 28.6707 158.297 29.4297 157.062 29.4297C155.739 29.4297 154.593 28.7106 154.593 27.0329C154.593 24.4763 157.547 23.9171 160.368 23.9171V26.4337ZM181.572 15.5682C180.426 15.049 178.706 14.6095 176.679 14.6095C172.27 14.6095 169.449 17.0063 169.449 20.1221C169.449 22.0396 170.816 23.8771 174.475 25.1953C176.634 25.9943 177.296 26.5535 177.296 27.6321C177.296 28.7106 176.414 29.3897 174.563 29.3897C172.932 29.3897 170.992 28.7506 169.934 28.2313L168.92 31.5868C170.243 32.2659 172.314 32.7452 174.475 32.7452C179.412 32.7452 182.233 30.5482 182.233 27.2326C182.233 24.8358 180.69 23.1181 177.34 21.9197C175.048 21.0809 174.342 20.5616 174.342 19.6028C174.342 18.6441 175.18 17.9251 176.811 17.9251C178.31 17.9251 179.676 18.4444 180.558 18.8439L181.572 15.5682ZM202.819 21.9996C202.819 16.8465 200.042 14.6095 196.516 14.6095C194.796 14.6095 192.636 15.2487 191.226 17.0862H191.137V7.25937H185.892V32.4257H191.137V21.8398C191.137 19.2433 193.165 18.4444 194.488 18.4444C196.78 18.4444 197.529 20.1621 197.529 22.3991V32.4656H202.775V22.0396L202.819 21.9996ZM218.292 14.6894C217.939 14.6095 217.631 14.6095 217.102 14.6095C215.25 14.6095 213.135 15.768 212.209 18.005H212.077L211.856 14.969H207.36C207.448 16.5269 207.492 18.2446 207.492 20.4018V32.3856H212.738V23.3578C212.738 20.3618 214.545 18.9637 216.925 18.9637C217.455 18.9637 217.895 19.0037 218.292 19.0436V14.6095V14.6894ZM226.624 10.2154C226.624 8.77734 225.477 7.73874 223.802 7.73874C222.171 7.73874 220.981 8.77734 220.981 10.2154C220.981 11.6135 222.127 12.6921 223.802 12.6921C225.433 12.6921 226.624 11.7334 226.624 10.2154ZM226.447 14.969H221.201V32.4257H226.447V14.969Z" fill="#0584C7"/>
<path d="M77.7154 44.9281H82.873L80.2721 38.8961L77.7154 44.9281ZM74.4975 49.482L79.5667 37.7377H81.0216L86.0911 49.482H84.8127L83.314 45.8868H77.3627L75.8198 49.482H74.5414H74.4975ZM87.3694 49.482V37.7377H88.4716V49.482H87.3694ZM98.6103 41.0132V49.482H97.5523V48.1237C97.1997 48.6431 96.7589 49.0425 96.2298 49.3222C95.701 49.5617 95.0837 49.7216 94.3345 49.7216C93.2324 49.7216 92.439 49.482 91.9098 48.9626C91.381 48.4434 91.0722 47.7242 91.0722 46.7257V41.0132H92.1744V46.4859C92.1744 47.3248 92.3506 47.924 92.7032 48.2835C93.0559 48.6431 93.6731 48.8027 94.5107 48.8027C95.4364 48.8027 96.1417 48.5632 96.7147 48.0437C97.2439 47.5644 97.5081 46.8455 97.5081 46.0066V40.9734H98.6103V41.0132ZM101.123 49.482V41.0132H102.181V42.4114C102.49 41.8922 102.93 41.4925 103.459 41.2129C103.988 40.9335 104.561 40.8135 105.223 40.8135C105.928 40.8135 106.545 40.9734 107.03 41.253C107.515 41.5326 107.823 41.9719 108 42.4913C108.308 41.932 108.749 41.5326 109.278 41.253C109.807 40.9734 110.424 40.8135 111.086 40.8135C112.144 40.8135 112.893 41.0533 113.422 41.4925C113.951 41.9719 114.215 42.6512 114.215 43.5698V49.482H113.069V43.6497C113.069 42.9308 112.893 42.4114 112.584 42.1317C112.276 41.8123 111.747 41.6524 111.041 41.6524C110.204 41.6524 109.499 41.8922 109.014 42.3314C108.485 42.8108 108.264 43.4102 108.264 44.1692V49.482H107.162V43.7296C107.162 43.0105 106.986 42.4913 106.677 42.1719C106.369 41.8123 105.84 41.6524 105.134 41.6524C104.297 41.6524 103.592 41.8922 103.107 42.3716C102.578 42.8509 102.313 43.45 102.313 44.2488V49.482H101.211H101.123ZM116.684 39.2156V37.7377H117.786V39.2156H116.684ZM116.684 49.482V41.0132H117.786V49.482H116.684ZM120.387 49.482V41.0132H121.445V42.3716C121.797 41.8521 122.238 41.4527 122.767 41.2129C123.296 40.9335 123.913 40.8135 124.619 40.8135C125.28 40.8135 125.853 40.9335 126.382 41.1332C126.867 41.3329 127.264 41.6524 127.528 42.012C127.66 42.2117 127.748 42.4515 127.837 42.7308C127.881 43.0105 127.925 43.45 127.925 44.0892V44.3287V49.482H126.779V44.209C126.779 43.2105 126.602 42.5311 126.25 42.1719C125.897 41.8123 125.28 41.6524 124.398 41.6524C123.517 41.6524 122.812 41.8922 122.282 42.4114C121.754 42.9308 121.489 43.6099 121.489 44.4488V49.4419H120.343L120.387 49.482ZM130.482 39.2156V37.7377H131.584V39.2156H130.482ZM130.482 49.482V41.0132H131.584V49.482H130.482ZM141.722 41.0132V49.482H140.665V48.1237C140.312 48.6431 139.871 49.0425 139.342 49.3222C138.813 49.5617 138.196 49.7216 137.447 49.7216C136.345 49.7216 135.551 49.482 135.022 48.9626C134.493 48.4434 134.184 47.7242 134.184 46.7257V41.0132H135.287V46.4859C135.287 47.3248 135.463 47.924 135.816 48.2835C136.168 48.6431 136.785 48.8027 137.623 48.8027C138.549 48.8027 139.254 48.5632 139.827 48.0437C140.356 47.5644 140.621 46.8455 140.621 46.0066V40.9734H141.722V41.0132ZM144.235 49.482V41.0132H145.293V42.4114C145.602 41.8922 146.042 41.4925 146.572 41.2129C147.1 40.9335 147.673 40.8135 148.335 40.8135C149.04 40.8135 149.657 40.9734 150.142 41.253C150.627 41.5326 150.936 41.9719 151.112 42.4913C151.42 41.932 151.862 41.5326 152.39 41.253C152.919 40.9734 153.536 40.8135 154.198 40.8135C155.256 40.8135 156.005 41.0533 156.534 41.4925C157.063 41.9719 157.328 42.6512 157.328 43.5698V49.482H156.182V43.6497C156.182 42.9308 156.005 42.4114 155.697 42.1317C155.388 41.8123 154.859 41.6524 154.154 41.6524C153.316 41.6524 152.611 41.8922 152.126 42.3314C151.597 42.8108 151.377 43.4102 151.377 44.1692V49.482H150.274V43.7296C150.274 43.0105 150.098 42.4913 149.789 42.1719C149.481 41.8123 148.952 41.6524 148.247 41.6524C147.409 41.6524 146.704 41.8922 146.219 42.3716C145.69 42.8509 145.426 43.45 145.426 44.2488V49.482H144.323H144.235ZM166.1 43.4102H168.965C170.288 43.4102 171.214 43.2105 171.787 42.8509C172.36 42.4913 172.624 41.8521 172.624 41.0132C172.624 40.2144 172.36 39.6153 171.875 39.2557C171.346 38.8961 170.552 38.6964 169.494 38.6964H166.1V43.4102ZM164.866 49.482V37.7377H169.494C170.949 37.7377 172.051 38.0174 172.756 38.5766C173.506 39.1359 173.858 39.9745 173.858 41.0533C173.858 42.1719 173.461 43.0105 172.624 43.5698C171.787 44.129 170.552 44.4087 168.877 44.4087H166.056V49.5219H164.821L164.866 49.482ZM178.223 49.482L174.608 41.0132H175.798L178.884 48.2835L181.925 41.0132H183.071L179.457 49.482H178.223ZM185.849 38.5766V41.0132H187.612V41.8123H185.849V48.0039C185.849 48.3635 185.893 48.603 186.025 48.7231C186.113 48.8428 186.29 48.8826 186.554 48.8826C186.686 48.8826 186.818 48.8826 186.951 48.8428C187.083 48.8428 187.303 48.8027 187.612 48.7231V49.5219C187.347 49.6018 187.083 49.6416 186.863 49.6416C186.642 49.6817 186.422 49.6817 186.245 49.6817C185.672 49.6817 185.32 49.5617 185.055 49.3222C184.835 49.0823 184.702 48.6431 184.702 47.9641V41.7722H183.38V40.9734H184.702V38.5365H185.805L185.849 38.5766ZM190.036 49.482V48.0437H191.271V49.482H190.036ZM199.514 49.482V37.7377H200.792V48.5234H207.581V49.482H199.514ZM210.358 38.5766V41.0132H212.122V41.8123H210.358V48.0039C210.358 48.3635 210.402 48.603 210.535 48.7231C210.623 48.8428 210.799 48.8826 211.064 48.8826C211.196 48.8826 211.328 48.8826 211.46 48.8428C211.593 48.8428 211.813 48.8027 212.122 48.7231V49.5219C211.857 49.6018 211.593 49.6416 211.372 49.6416C211.152 49.6817 210.931 49.6817 210.755 49.6817C210.182 49.6817 209.829 49.5617 209.565 49.3222C209.344 49.0823 209.212 48.6431 209.212 47.9641V41.7722H207.89V40.9734H209.212V38.5365H210.314L210.358 38.5766ZM214.634 45.2476C214.634 46.3662 214.899 47.2847 215.472 47.8841C216.045 48.5234 216.838 48.8428 217.852 48.8428C218.91 48.8428 219.704 48.5234 220.277 47.9239C220.85 47.2847 221.114 46.406 221.114 45.2476C221.114 44.0892 220.85 43.2105 220.277 42.5713C219.704 41.932 218.91 41.6524 217.852 41.6524C216.794 41.6524 216.001 41.9719 215.472 42.5713C214.899 43.2105 214.634 44.0892 214.634 45.2476ZM222.172 37.7377V49.482H221.07V48.0437C220.717 48.603 220.233 49.0027 219.659 49.2823C219.086 49.5617 218.425 49.6817 217.676 49.6817C216.397 49.6817 215.34 49.2823 214.59 48.4832C213.841 47.6844 213.444 46.6057 213.444 45.2078C213.444 43.8494 213.841 42.7308 214.59 41.932C215.34 41.1332 216.397 40.7335 217.72 40.7335C218.469 40.7335 219.131 40.8934 219.704 41.1731C220.277 41.4527 220.717 41.8922 221.07 42.4515V37.6976H222.172V37.7377ZM225.302 49.482V48.0437H226.537V49.482H225.302Z" fill="#848688"/>
<path d="M230.507 0.268262C231.212 0.268262 231.917 0.428048 232.578 0.74762C233.24 1.06719 233.769 1.54655 234.166 2.18569C234.562 2.78489 234.739 3.46398 234.739 4.10311C234.739 4.78222 234.562 5.42135 234.166 6.02054C233.813 6.61976 233.284 7.0991 232.578 7.45862C231.917 7.81814 231.212 7.97793 230.463 7.97793C229.713 7.97793 229.008 7.81814 228.347 7.45862C227.685 7.13904 227.156 6.6597 226.76 6.02054C226.363 5.42135 226.187 4.78222 226.187 4.10311C226.187 3.42404 226.363 2.78489 226.76 2.18569C227.156 1.54655 227.685 1.10714 228.347 0.74762C229.008 0.428048 229.713 0.268262 230.419 0.268262H230.507ZM230.507 0.907404C229.889 0.907404 229.316 1.02725 228.743 1.30687C228.17 1.58649 227.73 1.98596 227.421 2.50526C227.112 3.02458 226.936 3.54386 226.936 4.10311C226.936 4.66237 227.112 5.18168 227.421 5.70099C227.73 6.22027 228.17 6.61976 228.743 6.89937C229.316 7.17901 229.889 7.33877 230.507 7.33877C231.124 7.33877 231.697 7.17901 232.27 6.89937C232.843 6.61976 233.284 6.22027 233.592 5.70099C233.901 5.18168 234.077 4.66237 234.077 4.10311C234.077 3.54386 233.901 3.02458 233.592 2.50526C233.284 1.98596 232.843 1.58649 232.27 1.30687C231.697 1.02725 231.124 0.907404 230.551 0.907404H230.507ZM228.655 6.26024V2.1058H230.242C230.771 2.1058 231.168 2.14575 231.388 2.22564C231.609 2.30553 231.829 2.42537 231.961 2.6251C232.094 2.82484 232.182 3.02458 232.182 3.22431C232.182 3.54386 232.05 3.78356 231.829 4.02323C231.609 4.2629 231.256 4.38275 230.859 4.38275C231.036 4.46263 231.168 4.50257 231.256 4.62243C231.432 4.78222 231.653 5.06183 231.917 5.46129L232.49 6.26024H231.609L231.212 5.62108C230.903 5.1018 230.639 4.78222 230.463 4.66237C230.33 4.58248 230.11 4.50257 229.889 4.50257H229.449V6.26024H228.699H228.655ZM229.405 3.94332H230.286C230.727 3.94332 230.992 3.90338 231.168 3.78356C231.344 3.66371 231.388 3.50392 231.388 3.30419C231.388 3.18434 231.344 3.06452 231.256 2.98462C231.168 2.90473 231.08 2.82484 230.947 2.78489C230.815 2.74494 230.551 2.705 230.198 2.705H229.361V3.94332H229.405Z" fill="#0579B8"/>
</g>
<defs>
<clipPath id="clip0_1_9">
<rect width="235" height="50" fill="white"/>
</clipPath>
</defs>
</svg>
