<svg width="739" height="167" viewBox="0 0 739 167" fill="none" xmlns="http://www.w3.org/2000/svg">
<path fill-rule="evenodd" clip-rule="evenodd" d="M50.7428 10.7673C92.4686 10.7673 126.154 43.3221 126.154 83.3484C126.154 106.43 114.926 127.111 97.4591 140.453C94.548 132.314 89.1416 124.976 82.6263 118.838C81.7946 118.038 80.9628 117.371 80.1311 116.704C85.9533 111.901 90.8051 106.03 94.4093 99.0921C98.1522 91.6206 100.093 83.4819 100.093 75.2097C100.093 41.3208 71.3978 17.5718 37.1577 17.5718C24.4043 17.5718 12.4826 21.3076 2.50171 27.5784C15.5324 17.0381 32.4445 10.7673 50.7428 10.7673Z" fill="#2BB2E7"/>
<path fill-rule="evenodd" clip-rule="evenodd" d="M74.1638 152.594C66.8167 154.862 58.9151 156.196 50.875 156.196C31.329 156.196 13.4465 148.991 0 137.25V78.4114C0 58.6651 16.6349 42.6545 37.1512 42.6545C57.6675 42.6545 74.3024 55.7298 74.3024 75.4761C74.3024 92.8209 60.9945 103.628 38.3988 110.566C35.4877 111.5 33.4084 114.035 33.4084 116.703C33.4084 119.372 35.4877 121.907 38.3988 122.841C59.4696 129.245 72.5003 141.52 74.0252 152.727L74.1638 152.594Z" fill="#0584C7"/>
<path fill-rule="evenodd" clip-rule="evenodd" d="M177.299 2.8562H180.014V164.11H177.299V2.8562Z" fill="#848688"/>
<path d="M274.33 70.0098C282.37 67.0745 289.024 59.8698 289.024 49.9966C289.024 28.3824 267.121 27.1816 256.309 27.1816C247.991 27.1816 239.951 27.8487 234.129 28.9161V108.302H250.487V75.6135H256.031C263.794 75.6135 267.26 78.8156 269.478 89.2224C271.419 98.9622 273.637 105.9 274.884 108.302H291.796C290.133 105.233 287.915 95.6266 285.42 86.1537C283.479 78.0151 280.013 72.5448 274.053 70.4101V70.1432L274.33 70.0098ZM250.625 64.1393V39.5898C252.011 39.1895 254.507 38.9227 258.249 38.9227C264.21 38.9227 272.528 40.924 272.528 51.3308C272.528 58.9358 266.844 64.1393 257.418 64.1393H250.625ZM348.355 73.0785C348.355 60.27 343.087 48.7958 323.819 48.7958C314.115 48.7958 306.352 51.4643 302.332 53.7324L305.52 63.739C309.54 61.4708 315.085 59.7364 320.769 59.7364C329.779 59.7364 331.997 64.1393 331.997 69.8764C312.174 69.8764 298.035 76.9477 298.035 91.8909C298.035 101.364 305.243 109.369 316.749 109.369C323.68 109.369 329.641 106.701 333.245 102.164H333.522L334.493 108.168H349.325C348.632 104.566 348.494 99.4959 348.494 94.2924V72.9451L348.355 73.0785ZM332.275 88.2885C332.275 95.7601 325.759 98.2951 321.878 98.2951C317.719 98.2951 314.115 95.8935 314.115 90.2898C314.115 81.7508 323.403 79.883 332.275 79.883V88.2885ZM365.822 49.9966H357.643V61.3374H365.822V88.2885C365.822 94.8261 366.099 109.369 383.981 109.369C388.833 109.369 392.853 108.835 395.071 108.035L394.794 96.1603C393.131 96.4272 391.744 96.694 389.388 96.694C384.397 96.694 382.041 93.7588 382.041 86.6874V61.3374H395.764V49.9966H382.041V34.7866L365.683 39.3229V49.9966H365.822ZM459.254 72.5448C459.254 56.2674 450.382 48.9292 439.015 48.9292C430.004 48.9292 423.766 53.7324 420.994 58.0019H420.717L419.885 49.9966H405.607C405.884 55.2 406.023 60.6703 406.023 67.4748V108.302H422.519V73.6122C422.519 64.8064 428.618 61.4708 433.193 61.4708C440.263 61.4708 442.619 67.0745 442.619 74.2793V108.302H459.116V72.5448H459.254ZM520.387 73.0785C520.387 60.27 515.12 48.7958 495.851 48.7958C486.147 48.7958 478.384 51.4643 474.364 53.7324L477.552 63.739C481.573 61.4708 487.118 59.7364 492.801 59.7364C501.812 59.7364 504.03 64.1393 504.03 69.8764C484.206 69.8764 470.067 76.9477 470.067 91.8909C470.067 101.364 477.275 109.369 488.781 109.369C495.712 109.369 501.673 106.701 505.277 102.164H505.555L506.525 108.168H521.358C520.665 104.566 520.526 99.4959 520.526 94.2924V72.9451L520.387 73.0785ZM504.307 88.2885C504.307 95.7601 497.792 98.2951 493.91 98.2951C489.751 98.2951 486.147 95.8935 486.147 90.2898C486.147 81.7508 495.435 79.883 504.307 79.883V88.2885ZM570.985 51.9979C567.381 50.2635 561.974 48.7958 555.598 48.7958C541.735 48.7958 532.863 56.8011 532.863 67.2079C532.863 73.6122 537.161 79.7495 548.667 84.1524C555.459 86.8209 557.538 88.6888 557.538 92.2911C557.538 95.8935 554.766 98.1617 548.944 98.1617C543.815 98.1617 537.715 96.0269 534.388 94.2924L531.2 105.5C535.359 107.768 541.874 109.369 548.667 109.369C564.192 109.369 573.064 102.031 573.064 90.9569C573.064 82.9516 568.213 77.2145 557.677 73.2119C550.469 70.4101 548.251 68.6756 548.251 65.4735C548.251 62.2714 550.885 59.8698 556.014 59.8698C560.727 59.8698 565.024 61.6043 567.797 62.9385L570.985 51.9979ZM637.802 73.4787C637.802 56.2674 629.068 48.7958 617.979 48.7958C612.572 48.7958 605.78 50.9306 601.344 57.0679H601.066V24.2463H584.57V108.302H601.066V72.9451C601.066 64.2727 607.443 61.6043 611.602 61.6043C618.81 61.6043 621.167 67.3414 621.167 74.813V108.435H637.663V73.6122L637.802 73.4787ZM686.459 49.0627C685.35 48.7958 684.379 48.7958 682.716 48.7958C676.894 48.7958 670.24 52.665 667.329 60.1366H666.913L666.22 49.9966H652.08C652.357 55.2 652.496 60.9371 652.496 68.1419V108.168H668.992V78.0151C668.992 68.0085 674.676 63.3387 682.161 63.3387C683.825 63.3387 685.211 63.4722 686.459 63.6056V48.7958V49.0627ZM712.659 34.1195C712.659 29.3163 709.054 25.8474 703.787 25.8474C698.658 25.8474 694.915 29.3163 694.915 34.1195C694.915 38.7892 698.519 42.3916 703.787 42.3916C708.916 42.3916 712.659 39.1895 712.659 34.1195ZM712.104 49.9966H695.608V108.302H712.104V49.9966Z" fill="#0584C7"/>
<path d="M244.39 150.06H260.609L252.43 129.913L244.39 150.06ZM234.271 165.27L250.212 126.044H254.787L270.729 165.27H266.709L261.996 153.262H243.281L238.429 165.27H234.409H234.271ZM274.749 165.27V126.044H278.215V165.27H274.749ZM310.098 136.984V165.27H306.771V160.733C305.662 162.468 304.276 163.802 302.612 164.736C300.949 165.536 299.008 166.07 296.652 166.07C293.186 166.07 290.691 165.27 289.027 163.535C287.364 161.801 286.393 159.399 286.393 156.064V136.984H289.859V155.263C289.859 158.065 290.413 160.066 291.522 161.267C292.631 162.468 294.572 163.001 297.206 163.001C300.117 163.001 302.335 162.201 304.137 160.466C305.801 158.865 306.632 156.464 306.632 153.662V136.851H310.098V136.984ZM318 165.27V136.984H321.327V141.654C322.297 139.92 323.683 138.585 325.347 137.651C327.01 136.718 328.812 136.317 330.892 136.317C333.11 136.317 335.05 136.851 336.575 137.785C338.1 138.719 339.07 140.186 339.625 141.921C340.595 140.053 341.982 138.719 343.645 137.785C345.308 136.851 347.249 136.317 349.329 136.317C352.656 136.317 355.012 137.118 356.676 138.585C358.339 140.186 359.171 142.455 359.171 145.523V165.27H355.567V145.79C355.567 143.389 355.012 141.654 354.042 140.72C353.071 139.653 351.408 139.119 349.19 139.119C346.556 139.119 344.338 139.92 342.813 141.387C341.15 142.988 340.457 144.99 340.457 147.525V165.27H336.991V146.057C336.991 143.655 336.437 141.921 335.466 140.854C334.496 139.653 332.832 139.119 330.614 139.119C327.981 139.119 325.763 139.92 324.238 141.521C322.574 143.122 321.742 145.123 321.742 147.791V165.27H318.277H318ZM366.934 130.98V126.044H370.399V130.98H366.934ZM366.934 165.27V136.984H370.399V165.27H366.934ZM378.578 165.27V136.984H381.905V141.521C383.014 139.786 384.4 138.452 386.064 137.651C387.727 136.718 389.668 136.317 391.886 136.317C393.965 136.317 395.768 136.718 397.431 137.385C398.956 138.052 400.204 139.119 401.035 140.32C401.451 140.987 401.728 141.788 402.006 142.721C402.144 143.655 402.283 145.123 402.283 147.258V148.058V165.27H398.679V147.658C398.679 144.323 398.124 142.054 397.015 140.854C395.906 139.653 393.965 139.119 391.193 139.119C388.421 139.119 386.203 139.92 384.539 141.654C382.876 143.389 382.044 145.657 382.044 148.459V165.136H378.44L378.578 165.27ZM410.323 130.98V126.044H413.789V130.98H410.323ZM410.323 165.27V136.984H413.789V165.27H410.323ZM445.672 136.984V165.27H442.345V160.733C441.236 162.468 439.85 163.802 438.186 164.736C436.523 165.536 434.582 166.07 432.226 166.07C428.76 166.07 426.265 165.27 424.601 163.535C422.938 161.801 421.967 159.399 421.967 156.064V136.984H425.433V155.263C425.433 158.065 425.988 160.066 427.097 161.267C428.206 162.468 430.146 163.001 432.78 163.001C435.691 163.001 437.909 162.201 439.711 160.466C441.375 158.865 442.207 156.464 442.207 153.662V136.851H445.672V136.984ZM453.574 165.27V136.984H456.901V141.654C457.871 139.92 459.257 138.585 460.921 137.651C462.584 136.718 464.386 136.317 466.466 136.317C468.684 136.317 470.624 136.851 472.149 137.785C473.674 138.719 474.645 140.186 475.199 141.921C476.169 140.053 477.556 138.719 479.219 137.785C480.883 136.851 482.823 136.317 484.903 136.317C488.23 136.317 490.586 137.118 492.25 138.585C493.913 140.186 494.745 142.455 494.745 145.523V165.27H491.141V145.79C491.141 143.389 490.586 141.654 489.616 140.72C488.646 139.653 486.982 139.119 484.764 139.119C482.13 139.119 479.912 139.92 478.387 141.387C476.724 142.988 476.031 144.99 476.031 147.525V165.27H472.565V146.057C472.565 143.655 472.011 141.921 471.04 140.854C470.07 139.653 468.407 139.119 466.189 139.119C463.555 139.119 461.337 139.92 459.812 141.521C458.148 143.122 457.317 145.123 457.317 147.791V165.27H453.851H453.574ZM522.331 144.99H531.342C535.5 144.99 538.412 144.323 540.214 143.122C542.016 141.921 542.848 139.786 542.848 136.984C542.848 134.316 542.016 132.315 540.491 131.114C538.827 129.913 536.332 129.246 533.005 129.246H522.331V144.99ZM518.45 165.27V126.044H533.005C537.58 126.044 541.045 126.978 543.263 128.846C545.62 130.714 546.729 133.515 546.729 137.118C546.729 140.854 545.481 143.655 542.848 145.523C540.214 147.391 536.332 148.325 531.065 148.325H522.193V165.403H518.311L518.45 165.27ZM560.453 165.27L549.086 136.984H552.828L562.532 161.267L572.097 136.984H575.701L564.334 165.27H560.453ZM584.435 128.846V136.984H589.98V139.653H584.435V160.333C584.435 161.534 584.573 162.334 584.989 162.735C585.266 163.135 585.821 163.268 586.653 163.268C587.069 163.268 587.484 163.268 587.9 163.135C588.316 163.135 589.009 163.001 589.98 162.735V165.403C589.148 165.67 588.316 165.803 587.623 165.803C586.93 165.937 586.237 165.937 585.682 165.937C583.88 165.937 582.771 165.536 581.939 164.736C581.246 163.935 580.83 162.468 580.83 160.2V139.519H576.672V136.851H580.83V128.712H584.296L584.435 128.846ZM597.604 165.27V160.466H601.485V165.27H597.604ZM627.408 165.27V126.044H631.428V162.068H652.776V165.27H627.408ZM661.51 128.846V136.984H667.055V139.653H661.51V160.333C661.51 161.534 661.648 162.334 662.064 162.735C662.341 163.135 662.896 163.268 663.728 163.268C664.143 163.268 664.559 163.268 664.975 163.135C665.391 163.135 666.084 163.001 667.055 162.735V165.403C666.223 165.67 665.391 165.803 664.698 165.803C664.005 165.937 663.312 165.937 662.757 165.937C660.955 165.937 659.846 165.536 659.014 164.736C658.321 163.935 657.905 162.468 657.905 160.2V139.519H653.747V136.851H657.905V128.712H661.371L661.51 128.846ZM674.956 151.127C674.956 154.863 675.788 157.931 677.59 159.933C679.392 162.068 681.887 163.135 685.076 163.135C688.403 163.135 690.898 162.068 692.7 160.066C694.502 157.931 695.334 154.996 695.334 151.127C695.334 147.258 694.502 144.323 692.7 142.188C690.898 140.053 688.403 139.119 685.076 139.119C681.749 139.119 679.253 140.186 677.59 142.188C675.788 144.323 674.956 147.258 674.956 151.127ZM698.661 126.044V165.27H695.195V160.466C694.086 162.334 692.561 163.669 690.759 164.603C688.957 165.536 686.878 165.937 684.521 165.937C680.501 165.937 677.174 164.603 674.817 161.934C672.461 159.266 671.213 155.663 671.213 150.994C671.213 146.457 672.461 142.721 674.817 140.053C677.174 137.385 680.501 136.05 684.66 136.05C687.016 136.05 689.096 136.584 690.898 137.518C692.7 138.452 694.086 139.92 695.195 141.788V125.91H698.661V126.044ZM708.503 165.27V160.466H712.385V165.27H708.503Z" fill="#848688"/>
<path d="M724.87 0.895996C727.088 0.895996 729.306 1.42968 731.385 2.49705C733.464 3.56442 735.128 5.16547 736.376 7.30021C737.623 9.30153 738.178 11.5697 738.178 13.7044C738.178 15.9726 737.623 18.1073 736.376 20.1086C735.267 22.11 733.603 23.711 731.385 24.9118C729.306 26.1126 727.088 26.6463 724.731 26.6463C722.375 26.6463 720.157 26.1126 718.077 24.9118C715.998 23.8444 714.334 22.2434 713.087 20.1086C711.839 18.1073 711.285 15.9726 711.285 13.7044C711.285 11.4363 711.839 9.30153 713.087 7.30021C714.334 5.16547 715.998 3.69784 718.077 2.49705C720.157 1.42968 722.375 0.895996 724.593 0.895996H724.87ZM724.87 3.03073C722.929 3.03073 721.127 3.431 719.325 4.36495C717.523 5.29889 716.137 6.63311 715.166 8.36758C714.196 10.1021 713.641 11.8365 713.641 13.7044C713.641 15.5723 714.196 17.3068 715.166 19.0413C716.137 20.7757 717.523 22.11 719.325 23.0439C721.127 23.9779 722.929 24.5115 724.87 24.5115C726.811 24.5115 728.613 23.9779 730.415 23.0439C732.217 22.11 733.603 20.7757 734.573 19.0413C735.544 17.3068 736.098 15.5723 736.098 13.7044C736.098 11.8365 735.544 10.1021 734.573 8.36758C733.603 6.63311 732.217 5.29889 730.415 4.36495C728.613 3.431 726.811 3.03073 725.008 3.03073H724.87ZM719.048 20.9092V7.03337H724.038C725.702 7.03337 726.949 7.16679 727.642 7.43363C728.335 7.70047 729.029 8.10074 729.444 8.76784C729.86 9.43495 730.138 10.1021 730.138 10.7692C730.138 11.8365 729.722 12.6371 729.029 13.4376C728.335 14.2381 727.226 14.6384 725.979 14.6384C726.533 14.9052 726.949 15.0386 727.226 15.4389C727.781 15.9726 728.474 16.9065 729.306 18.2407L731.108 20.9092H728.335L727.088 18.7744C726.117 17.04 725.286 15.9726 724.731 15.5723C724.315 15.3055 723.622 15.0386 722.929 15.0386H721.543V20.9092H719.186H719.048ZM721.404 13.1707H724.177C725.563 13.1707 726.395 13.0373 726.949 12.6371C727.504 12.2368 727.642 11.7031 727.642 11.036C727.642 10.6357 727.504 10.2355 727.226 9.96863C726.949 9.70179 726.672 9.43495 726.256 9.30153C725.84 9.16811 725.008 9.03469 723.899 9.03469H721.266V13.1707H721.404Z" fill="#0579B8"/>
</svg>
